<svg width="100%" viewBox="0 0 690 1010" role="img" xmlns="http://www.w3.org/2000/svg" style="">
  <title style="fill:rgb(0, 0, 0);stroke:none;color:rgb(0, 0, 0);stroke-width:1px;stroke-linecap:butt;stroke-linejoin:miter;opacity:1;font-family:&quot;Anthropic Sans&quot;, -apple-system, &quot;system-ui&quot;, &quot;Segoe UI&quot;, sans-serif;font-size:16px;font-weight:400;text-anchor:start;dominant-baseline:auto">Fleetwood Mac star background pattern</title>
  <desc style="fill:rgb(0, 0, 0);stroke:none;color:rgb(0, 0, 0);stroke-width:1px;stroke-linecap:butt;stroke-linejoin:miter;opacity:1;font-family:&quot;Anthropic Sans&quot;, -apple-system, &quot;system-ui&quot;, &quot;Segoe UI&quot;, sans-serif;font-size:16px;font-weight:400;text-anchor:start;dominant-baseline:auto">Warm cream background with scattered gold four-pointed stars and vertical shimmer lines</desc>

  

  <!-- warm cream background -->
  <rect width="680" height="1000" fill="#f5ede0" style="fill:rgb(245, 237, 224);stroke:none;color:rgb(0, 0, 0);stroke-width:1px;stroke-linecap:butt;stroke-linejoin:miter;opacity:1;font-family:&quot;Anthropic Sans&quot;, -apple-system, &quot;system-ui&quot;, &quot;Segoe UI&quot;, sans-serif;font-size:16px;font-weight:400;text-anchor:start;dominant-baseline:auto"/>

  <!-- subtle warm texture overlay -->
  <rect width="680" height="1000" fill="url(#grain)" opacity="0.04" style="stroke:none;color:rgb(0, 0, 0);stroke-width:1px;stroke-linecap:butt;stroke-linejoin:miter;opacity:0.04;font-family:&quot;Anthropic Sans&quot;, -apple-system, &quot;system-ui&quot;, &quot;Segoe UI&quot;, sans-serif;font-size:16px;font-weight:400;text-anchor:start;dominant-baseline:auto"/>

  <!-- vertical shimmer lines -->
  <line x1="42" y1="0" x2="42" y2="1000" style="fill:rgb(0, 0, 0);stroke:rgb(196, 163, 90);color:rgb(0, 0, 0);stroke-width:0.6px;stroke-linecap:butt;stroke-linejoin:miter;opacity:0.18;font-family:&quot;Anthropic Sans&quot;, -apple-system, &quot;system-ui&quot;, &quot;Segoe UI&quot;, sans-serif;font-size:16px;font-weight:400;text-anchor:start;dominant-baseline:auto"/>
  <line x1="78" y1="0" x2="78" y2="1000" style="fill:rgb(0, 0, 0);stroke:rgb(196, 163, 90);color:rgb(0, 0, 0);stroke-width:0.6px;stroke-linecap:butt;stroke-linejoin:miter;opacity:0.18;font-family:&quot;Anthropic Sans&quot;, -apple-system, &quot;system-ui&quot;, &quot;Segoe UI&quot;, sans-serif;font-size:16px;font-weight:400;text-anchor:start;dominant-baseline:auto"/>
  <line x1="114" y1="0" x2="114" y2="1000" style="fill:rgb(0, 0, 0);stroke:rgb(196, 163, 90);color:rgb(0, 0, 0);stroke-width:0.6px;stroke-linecap:butt;stroke-linejoin:miter;opacity:0.18;font-family:&quot;Anthropic Sans&quot;, -apple-system, &quot;system-ui&quot;, &quot;Segoe UI&quot;, sans-serif;font-size:16px;font-weight:400;text-anchor:start;dominant-baseline:auto"/>
  <line x1="150" y1="0" x2="150" y2="1000" style="fill:rgb(0, 0, 0);stroke:rgb(196, 163, 90);color:rgb(0, 0, 0);stroke-width:0.6px;stroke-linecap:butt;stroke-linejoin:miter;opacity:0.18;font-family:&quot;Anthropic Sans&quot;, -apple-system, &quot;system-ui&quot;, &quot;Segoe UI&quot;, sans-serif;font-size:16px;font-weight:400;text-anchor:start;dominant-baseline:auto"/>
  <line x1="186" y1="0" x2="186" y2="1000" style="fill:rgb(0, 0, 0);stroke:rgb(196, 163, 90);color:rgb(0, 0, 0);stroke-width:0.6px;stroke-linecap:butt;stroke-linejoin:miter;opacity:0.18;font-family:&quot;Anthropic Sans&quot;, -apple-system, &quot;system-ui&quot;, &quot;Segoe UI&quot;, sans-serif;font-size:16px;font-weight:400;text-anchor:start;dominant-baseline:auto"/>
  <line x1="222" y1="0" x2="222" y2="1000" style="fill:rgb(0, 0, 0);stroke:rgb(196, 163, 90);color:rgb(0, 0, 0);stroke-width:0.6px;stroke-linecap:butt;stroke-linejoin:miter;opacity:0.18;font-family:&quot;Anthropic Sans&quot;, -apple-system, &quot;system-ui&quot;, &quot;Segoe UI&quot;, sans-serif;font-size:16px;font-weight:400;text-anchor:start;dominant-baseline:auto"/>
  <line x1="258" y1="0" x2="258" y2="1000" style="fill:rgb(0, 0, 0);stroke:rgb(196, 163, 90);color:rgb(0, 0, 0);stroke-width:0.6px;stroke-linecap:butt;stroke-linejoin:miter;opacity:0.18;font-family:&quot;Anthropic Sans&quot;, -apple-system, &quot;system-ui&quot;, &quot;Segoe UI&quot;, sans-serif;font-size:16px;font-weight:400;text-anchor:start;dominant-baseline:auto"/>
  <line x1="294" y1="0" x2="294" y2="1000" style="fill:rgb(0, 0, 0);stroke:rgb(196, 163, 90);color:rgb(0, 0, 0);stroke-width:0.6px;stroke-linecap:butt;stroke-linejoin:miter;opacity:0.18;font-family:&quot;Anthropic Sans&quot;, -apple-system, &quot;system-ui&quot;, &quot;Segoe UI&quot;, sans-serif;font-size:16px;font-weight:400;text-anchor:start;dominant-baseline:auto"/>
  <line x1="330" y1="0" x2="330" y2="1000" style="fill:rgb(0, 0, 0);stroke:rgb(196, 163, 90);color:rgb(0, 0, 0);stroke-width:0.6px;stroke-linecap:butt;stroke-linejoin:miter;opacity:0.18;font-family:&quot;Anthropic Sans&quot;, -apple-system, &quot;system-ui&quot;, &quot;Segoe UI&quot;, sans-serif;font-size:16px;font-weight:400;text-anchor:start;dominant-baseline:auto"/>
  <line x1="366" y1="0" x2="366" y2="1000" style="fill:rgb(0, 0, 0);stroke:rgb(196, 163, 90);color:rgb(0, 0, 0);stroke-width:0.6px;stroke-linecap:butt;stroke-linejoin:miter;opacity:0.18;font-family:&quot;Anthropic Sans&quot;, -apple-system, &quot;system-ui&quot;, &quot;Segoe UI&quot;, sans-serif;font-size:16px;font-weight:400;text-anchor:start;dominant-baseline:auto"/>
  <line x1="402" y1="0" x2="402" y2="1000" style="fill:rgb(0, 0, 0);stroke:rgb(196, 163, 90);color:rgb(0, 0, 0);stroke-width:0.6px;stroke-linecap:butt;stroke-linejoin:miter;opacity:0.18;font-family:&quot;Anthropic Sans&quot;, -apple-system, &quot;system-ui&quot;, &quot;Segoe UI&quot;, sans-serif;font-size:16px;font-weight:400;text-anchor:start;dominant-baseline:auto"/>
  <line x1="438" y1="0" x2="438" y2="1000" style="fill:rgb(0, 0, 0);stroke:rgb(196, 163, 90);color:rgb(0, 0, 0);stroke-width:0.6px;stroke-linecap:butt;stroke-linejoin:miter;opacity:0.18;font-family:&quot;Anthropic Sans&quot;, -apple-system, &quot;system-ui&quot;, &quot;Segoe UI&quot;, sans-serif;font-size:16px;font-weight:400;text-anchor:start;dominant-baseline:auto"/>
  <line x1="474" y1="0" x2="474" y2="1000" style="fill:rgb(0, 0, 0);stroke:rgb(196, 163, 90);color:rgb(0, 0, 0);stroke-width:0.6px;stroke-linecap:butt;stroke-linejoin:miter;opacity:0.18;font-family:&quot;Anthropic Sans&quot;, -apple-system, &quot;system-ui&quot;, &quot;Segoe UI&quot;, sans-serif;font-size:16px;font-weight:400;text-anchor:start;dominant-baseline:auto"/>
  <line x1="510" y1="0" x2="510" y2="1000" style="fill:rgb(0, 0, 0);stroke:rgb(196, 163, 90);color:rgb(0, 0, 0);stroke-width:0.6px;stroke-linecap:butt;stroke-linejoin:miter;opacity:0.18;font-family:&quot;Anthropic Sans&quot;, -apple-system, &quot;system-ui&quot;, &quot;Segoe UI&quot;, sans-serif;font-size:16px;font-weight:400;text-anchor:start;dominant-baseline:auto"/>
  <line x1="546" y1="0" x2="546" y2="1000" style="fill:rgb(0, 0, 0);stroke:rgb(196, 163, 90);color:rgb(0, 0, 0);stroke-width:0.6px;stroke-linecap:butt;stroke-linejoin:miter;opacity:0.18;font-family:&quot;Anthropic Sans&quot;, -apple-system, &quot;system-ui&quot;, &quot;Segoe UI&quot;, sans-serif;font-size:16px;font-weight:400;text-anchor:start;dominant-baseline:auto"/>
  <line x1="582" y1="0" x2="582" y2="1000" style="fill:rgb(0, 0, 0);stroke:rgb(196, 163, 90);color:rgb(0, 0, 0);stroke-width:0.6px;stroke-linecap:butt;stroke-linejoin:miter;opacity:0.18;font-family:&quot;Anthropic Sans&quot;, -apple-system, &quot;system-ui&quot;, &quot;Segoe UI&quot;, sans-serif;font-size:16px;font-weight:400;text-anchor:start;dominant-baseline:auto"/>
  <line x1="618" y1="0" x2="618" y2="1000" style="fill:rgb(0, 0, 0);stroke:rgb(196, 163, 90);color:rgb(0, 0, 0);stroke-width:0.6px;stroke-linecap:butt;stroke-linejoin:miter;opacity:0.18;font-family:&quot;Anthropic Sans&quot;, -apple-system, &quot;system-ui&quot;, &quot;Segoe UI&quot;, sans-serif;font-size:16px;font-weight:400;text-anchor:start;dominant-baseline:auto"/>
  <line x1="654" y1="0" x2="654" y2="1000" style="fill:rgb(0, 0, 0);stroke:rgb(196, 163, 90);color:rgb(0, 0, 0);stroke-width:0.6px;stroke-linecap:butt;stroke-linejoin:miter;opacity:0.18;font-family:&quot;Anthropic Sans&quot;, -apple-system, &quot;system-ui&quot;, &quot;Segoe UI&quot;, sans-serif;font-size:16px;font-weight:400;text-anchor:start;dominant-baseline:auto"/>

  <!-- shimmer sparkle dots -->
  <circle cx="114" cy="180" r="1.5" style="fill:rgb(232, 200, 120);stroke:none;color:rgb(0, 0, 0);stroke-width:1px;stroke-linecap:butt;stroke-linejoin:miter;opacity:0.55;font-family:&quot;Anthropic Sans&quot;, -apple-system, &quot;system-ui&quot;, &quot;Segoe UI&quot;, sans-serif;font-size:16px;font-weight:400;text-anchor:start;dominant-baseline:auto"/>
  <circle cx="258" cy="320" r="1" style="fill:rgb(232, 200, 120);stroke:none;color:rgb(0, 0, 0);stroke-width:1px;stroke-linecap:butt;stroke-linejoin:miter;opacity:0.55;font-family:&quot;Anthropic Sans&quot;, -apple-system, &quot;system-ui&quot;, &quot;Segoe UI&quot;, sans-serif;font-size:16px;font-weight:400;text-anchor:start;dominant-baseline:auto"/>
  <circle cx="402" cy="90" r="1.5" style="fill:rgb(232, 200, 120);stroke:none;color:rgb(0, 0, 0);stroke-width:1px;stroke-linecap:butt;stroke-linejoin:miter;opacity:0.55;font-family:&quot;Anthropic Sans&quot;, -apple-system, &quot;system-ui&quot;, &quot;Segoe UI&quot;, sans-serif;font-size:16px;font-weight:400;text-anchor:start;dominant-baseline:auto"/>
  <circle cx="546" cy="440" r="1" style="fill:rgb(232, 200, 120);stroke:none;color:rgb(0, 0, 0);stroke-width:1px;stroke-linecap:butt;stroke-linejoin:miter;opacity:0.55;font-family:&quot;Anthropic Sans&quot;, -apple-system, &quot;system-ui&quot;, &quot;Segoe UI&quot;, sans-serif;font-size:16px;font-weight:400;text-anchor:start;dominant-baseline:auto"/>
  <circle cx="78" cy="600" r="1.5" style="fill:rgb(232, 200, 120);stroke:none;color:rgb(0, 0, 0);stroke-width:1px;stroke-linecap:butt;stroke-linejoin:miter;opacity:0.55;font-family:&quot;Anthropic Sans&quot;, -apple-system, &quot;system-ui&quot;, &quot;Segoe UI&quot;, sans-serif;font-size:16px;font-weight:400;text-anchor:start;dominant-baseline:auto"/>
  <circle cx="330" cy="730" r="1" style="fill:rgb(232, 200, 120);stroke:none;color:rgb(0, 0, 0);stroke-width:1px;stroke-linecap:butt;stroke-linejoin:miter;opacity:0.55;font-family:&quot;Anthropic Sans&quot;, -apple-system, &quot;system-ui&quot;, &quot;Segoe UI&quot;, sans-serif;font-size:16px;font-weight:400;text-anchor:start;dominant-baseline:auto"/>
  <circle cx="474" cy="860" r="1.5" style="fill:rgb(232, 200, 120);stroke:none;color:rgb(0, 0, 0);stroke-width:1px;stroke-linecap:butt;stroke-linejoin:miter;opacity:0.55;font-family:&quot;Anthropic Sans&quot;, -apple-system, &quot;system-ui&quot;, &quot;Segoe UI&quot;, sans-serif;font-size:16px;font-weight:400;text-anchor:start;dominant-baseline:auto"/>
  <circle cx="186" cy="950" r="1" style="fill:rgb(232, 200, 120);stroke:none;color:rgb(0, 0, 0);stroke-width:1px;stroke-linecap:butt;stroke-linejoin:miter;opacity:0.55;font-family:&quot;Anthropic Sans&quot;, -apple-system, &quot;system-ui&quot;, &quot;Segoe UI&quot;, sans-serif;font-size:16px;font-weight:400;text-anchor:start;dominant-baseline:auto"/>
  <circle cx="618" cy="200" r="1.5" style="fill:rgb(232, 200, 120);stroke:none;color:rgb(0, 0, 0);stroke-width:1px;stroke-linecap:butt;stroke-linejoin:miter;opacity:0.55;font-family:&quot;Anthropic Sans&quot;, -apple-system, &quot;system-ui&quot;, &quot;Segoe UI&quot;, sans-serif;font-size:16px;font-weight:400;text-anchor:start;dominant-baseline:auto"/>
  <circle cx="150" cy="500" r="1" style="fill:rgb(232, 200, 120);stroke:none;color:rgb(0, 0, 0);stroke-width:1px;stroke-linecap:butt;stroke-linejoin:miter;opacity:0.55;font-family:&quot;Anthropic Sans&quot;, -apple-system, &quot;system-ui&quot;, &quot;Segoe UI&quot;, sans-serif;font-size:16px;font-weight:400;text-anchor:start;dominant-baseline:auto"/>
  <circle cx="510" cy="650" r="1.5" style="fill:rgb(232, 200, 120);stroke:none;color:rgb(0, 0, 0);stroke-width:1px;stroke-linecap:butt;stroke-linejoin:miter;opacity:0.55;font-family:&quot;Anthropic Sans&quot;, -apple-system, &quot;system-ui&quot;, &quot;Segoe UI&quot;, sans-serif;font-size:16px;font-weight:400;text-anchor:start;dominant-baseline:auto"/>

  <!-- STAR MACRO: four-pointed star path centered at cx,cy with arm length a and waist w -->
  <!-- Large stars -->
  <!-- star at 80, 120 size 38 -->
  <path d="M80,82 C80,96 74,101 60,101 C74,101 80,106 80,120 C80,106 86,101 100,101 C86,101 80,96 80,82Z" style="fill:rgb(196, 163, 90);stroke:none;color:rgb(0, 0, 0);stroke-width:1px;stroke-linecap:butt;stroke-linejoin:miter;opacity:0.92;font-family:&quot;Anthropic Sans&quot;, -apple-system, &quot;system-ui&quot;, &quot;Segoe UI&quot;, sans-serif;font-size:16px;font-weight:400;text-anchor:start;dominant-baseline:auto"/>
  <!-- star at 560, 60 size 34 -->
  <path d="M560,26 C560,39 554,44 541,44 C554,44 560,49 560,62 C560,49 566,44 579,44 C566,44 560,39 560,26Z" style="fill:rgb(196, 163, 90);stroke:none;color:rgb(0, 0, 0);stroke-width:1px;stroke-linecap:butt;stroke-linejoin:miter;opacity:0.92;font-family:&quot;Anthropic Sans&quot;, -apple-system, &quot;system-ui&quot;, &quot;Segoe UI&quot;, sans-serif;font-size:16px;font-weight:400;text-anchor:start;dominant-baseline:auto"/>
  <!-- star at 160, 440 size 42 -->
  <path d="M160,398 C160,413 153,419 138,419 C153,419 160,425 160,440 C160,425 167,419 182,419 C167,419 160,413 160,398Z" style="fill:rgb(196, 163, 90);stroke:none;color:rgb(0, 0, 0);stroke-width:1px;stroke-linecap:butt;stroke-linejoin:miter;opacity:0.92;font-family:&quot;Anthropic Sans&quot;, -apple-system, &quot;system-ui&quot;, &quot;Segoe UI&quot;, sans-serif;font-size:16px;font-weight:400;text-anchor:start;dominant-baseline:auto"/>
  <!-- star at 520, 360 size 38 -->
  <path d="M520,322 C520,336 514,341 500,341 C514,341 520,346 520,360 C520,346 526,341 540,341 C526,341 520,336 520,322Z" style="fill:rgb(196, 163, 90);stroke:none;color:rgb(0, 0, 0);stroke-width:1px;stroke-linecap:butt;stroke-linejoin:miter;opacity:0.92;font-family:&quot;Anthropic Sans&quot;, -apple-system, &quot;system-ui&quot;, &quot;Segoe UI&quot;, sans-serif;font-size:16px;font-weight:400;text-anchor:start;dominant-baseline:auto"/>
  <!-- star at 340, 780 size 44 -->
  <path d="M340,736 C340,752 333,758 317,758 C333,758 340,764 340,780 C340,764 347,758 363,758 C347,758 340,752 340,736Z" style="fill:rgb(196, 163, 90);stroke:none;color:rgb(0, 0, 0);stroke-width:1px;stroke-linecap:butt;stroke-linejoin:miter;opacity:0.92;font-family:&quot;Anthropic Sans&quot;, -apple-system, &quot;system-ui&quot;, &quot;Segoe UI&quot;, sans-serif;font-size:16px;font-weight:400;text-anchor:start;dominant-baseline:auto"/>
  <!-- star at 60, 830 size 36 -->
  <path d="M60,794 C60,807 54,812 41,812 C54,812 60,817 60,830 C60,817 66,812 79,812 C66,812 60,807 60,794Z" style="fill:rgb(196, 163, 90);stroke:none;color:rgb(0, 0, 0);stroke-width:1px;stroke-linecap:butt;stroke-linejoin:miter;opacity:0.92;font-family:&quot;Anthropic Sans&quot;, -apple-system, &quot;system-ui&quot;, &quot;Segoe UI&quot;, sans-serif;font-size:16px;font-weight:400;text-anchor:start;dominant-baseline:auto"/>
  <!-- star at 610, 750 size 40 -->
  <path d="M610,710 C610,724 603,730 589,730 C603,730 610,736 610,750 C610,736 617,730 631,730 C617,730 610,724 610,710Z" style="fill:rgb(196, 163, 90);stroke:none;color:rgb(0, 0, 0);stroke-width:1px;stroke-linecap:butt;stroke-linejoin:miter;opacity:0.92;font-family:&quot;Anthropic Sans&quot;, -apple-system, &quot;system-ui&quot;, &quot;Segoe UI&quot;, sans-serif;font-size:16px;font-weight:400;text-anchor:start;dominant-baseline:auto"/>
  <!-- star at 430, 950 size 36 -->
  <path d="M430,914 C430,927 424,932 411,932 C424,932 430,937 430,950 C430,937 436,932 449,932 C436,932 430,927 430,914Z" style="fill:rgb(196, 163, 90);stroke:none;color:rgb(0, 0, 0);stroke-width:1px;stroke-linecap:butt;stroke-linejoin:miter;opacity:0.92;font-family:&quot;Anthropic Sans&quot;, -apple-system, &quot;system-ui&quot;, &quot;Segoe UI&quot;, sans-serif;font-size:16px;font-weight:400;text-anchor:start;dominant-baseline:auto"/>
  <!-- star at 260, 200 size 30 -->
  <path d="M260,170 C260,182 255,187 243,187 C255,187 260,192 260,200 C260,192 265,187 277,187 C265,187 260,182 260,170Z" style="fill:rgb(196, 163, 90);stroke:none;color:rgb(0, 0, 0);stroke-width:1px;stroke-linecap:butt;stroke-linejoin:miter;opacity:0.92;font-family:&quot;Anthropic Sans&quot;, -apple-system, &quot;system-ui&quot;, &quot;Segoe UI&quot;, sans-serif;font-size:16px;font-weight:400;text-anchor:start;dominant-baseline:auto"/>

  <!-- Medium stars -->
  <path d="M420,140 C420,150 415,154 406,154 C415,154 420,158 420,168 C420,158 425,154 434,154 C425,154 420,150 420,140Z" style="fill:rgb(184, 148, 42);stroke:none;color:rgb(0, 0, 0);stroke-width:1px;stroke-linecap:butt;stroke-linejoin:miter;opacity:0.85;font-family:&quot;Anthropic Sans&quot;, -apple-system, &quot;system-ui&quot;, &quot;Segoe UI&quot;, sans-serif;font-size:16px;font-weight:400;text-anchor:start;dominant-baseline:auto"/>
  <path d="M200,580 C200,590 195,594 186,594 C195,594 200,598 200,608 C200,598 205,594 214,594 C205,594 200,590 200,580Z" style="fill:rgb(184, 148, 42);stroke:none;color:rgb(0, 0, 0);stroke-width:1px;stroke-linecap:butt;stroke-linejoin:miter;opacity:0.85;font-family:&quot;Anthropic Sans&quot;, -apple-system, &quot;system-ui&quot;, &quot;Segoe UI&quot;, sans-serif;font-size:16px;font-weight:400;text-anchor:start;dominant-baseline:auto"/>
  <path d="M490,500 C490,510 485,514 476,514 C485,514 490,518 490,528 C490,518 495,514 504,514 C495,514 490,510 490,500Z" style="fill:rgb(184, 148, 42);stroke:none;color:rgb(0, 0, 0);stroke-width:1px;stroke-linecap:butt;stroke-linejoin:miter;opacity:0.85;font-family:&quot;Anthropic Sans&quot;, -apple-system, &quot;system-ui&quot;, &quot;Segoe UI&quot;, sans-serif;font-size:16px;font-weight:400;text-anchor:start;dominant-baseline:auto"/>
  <path d="M100,290 C100,300 95,304 86,304 C95,304 100,308 100,318 C100,308 105,304 114,304 C105,304 100,300 100,290Z" style="fill:rgb(184, 148, 42);stroke:none;color:rgb(0, 0, 0);stroke-width:1px;stroke-linecap:butt;stroke-linejoin:miter;opacity:0.85;font-family:&quot;Anthropic Sans&quot;, -apple-system, &quot;system-ui&quot;, &quot;Segoe UI&quot;, sans-serif;font-size:16px;font-weight:400;text-anchor:start;dominant-baseline:auto"/>
  <path d="M580,880 C580,890 575,894 566,894 C575,894 580,898 580,908 C580,898 585,894 594,894 C585,894 580,890 580,880Z" style="fill:rgb(184, 148, 42);stroke:none;color:rgb(0, 0, 0);stroke-width:1px;stroke-linecap:butt;stroke-linejoin:miter;opacity:0.85;font-family:&quot;Anthropic Sans&quot;, -apple-system, &quot;system-ui&quot;, &quot;Segoe UI&quot;, sans-serif;font-size:16px;font-weight:400;text-anchor:start;dominant-baseline:auto"/>
  <path d="M340,480 C340,490 335,494 326,494 C335,494 340,498 340,508 C340,498 345,494 354,494 C345,494 340,490 340,480Z" style="fill:rgb(184, 148, 42);stroke:none;color:rgb(0, 0, 0);stroke-width:1px;stroke-linecap:butt;stroke-linejoin:miter;opacity:0.85;font-family:&quot;Anthropic Sans&quot;, -apple-system, &quot;system-ui&quot;, &quot;Segoe UI&quot;, sans-serif;font-size:16px;font-weight:400;text-anchor:start;dominant-baseline:auto"/>
  <path d="M640,400 C640,410 635,414 626,414 C635,414 640,418 640,428 C640,418 645,414 654,414 C645,414 640,410 640,400Z" style="fill:rgb(184, 148, 42);stroke:none;color:rgb(0, 0, 0);stroke-width:1px;stroke-linecap:butt;stroke-linejoin:miter;opacity:0.85;font-family:&quot;Anthropic Sans&quot;, -apple-system, &quot;system-ui&quot;, &quot;Segoe UI&quot;, sans-serif;font-size:16px;font-weight:400;text-anchor:start;dominant-baseline:auto"/>
  <path d="M30,700 C30,710 25,714 16,714 C25,714 30,718 30,728 C30,718 35,714 44,714 C35,714 30,710 30,700Z" style="fill:rgb(184, 148, 42);stroke:none;color:rgb(0, 0, 0);stroke-width:1px;stroke-linecap:butt;stroke-linejoin:miter;opacity:0.85;font-family:&quot;Anthropic Sans&quot;, -apple-system, &quot;system-ui&quot;, &quot;Segoe UI&quot;, sans-serif;font-size:16px;font-weight:400;text-anchor:start;dominant-baseline:auto"/>

  <!-- Small accent stars -->
  <path d="M310,50 C310,56 307,59 301,59 C307,59 310,62 310,68 C310,62 313,59 319,59 C313,59 310,56 310,50Z" style="fill:rgb(212, 184, 106);stroke:none;color:rgb(0, 0, 0);stroke-width:1px;stroke-linecap:butt;stroke-linejoin:miter;opacity:0.75;font-family:&quot;Anthropic Sans&quot;, -apple-system, &quot;system-ui&quot;, &quot;Segoe UI&quot;, sans-serif;font-size:16px;font-weight:400;text-anchor:start;dominant-baseline:auto"/>
  <path d="M640,150 C640,156 637,159 631,159 C637,159 640,162 640,168 C640,162 643,159 649,159 C643,159 640,156 640,150Z" style="fill:rgb(212, 184, 106);stroke:none;color:rgb(0, 0, 0);stroke-width:1px;stroke-linecap:butt;stroke-linejoin:miter;opacity:0.75;font-family:&quot;Anthropic Sans&quot;, -apple-system, &quot;system-ui&quot;, &quot;Segoe UI&quot;, sans-serif;font-size:16px;font-weight:400;text-anchor:start;dominant-baseline:auto"/>
  <path d="M50,460 C50,466 47,469 41,469 C47,469 50,472 50,478 C50,472 53,469 59,469 C53,469 50,466 50,460Z" style="fill:rgb(212, 184, 106);stroke:none;color:rgb(0, 0, 0);stroke-width:1px;stroke-linecap:butt;stroke-linejoin:miter;opacity:0.75;font-family:&quot;Anthropic Sans&quot;, -apple-system, &quot;system-ui&quot;, &quot;Segoe UI&quot;, sans-serif;font-size:16px;font-weight:400;text-anchor:start;dominant-baseline:auto"/>
  <path d="M450,640 C450,646 447,649 441,649 C447,649 450,652 450,658 C450,652 453,649 459,649 C453,649 450,646 450,640Z" style="fill:rgb(212, 184, 106);stroke:none;color:rgb(0, 0, 0);stroke-width:1px;stroke-linecap:butt;stroke-linejoin:miter;opacity:0.75;font-family:&quot;Anthropic Sans&quot;, -apple-system, &quot;system-ui&quot;, &quot;Segoe UI&quot;, sans-serif;font-size:16px;font-weight:400;text-anchor:start;dominant-baseline:auto"/>
  <path d="M180,860 C180,866 177,869 171,869 C177,869 180,872 180,878 C180,872 183,869 189,869 C183,869 180,866 180,860Z" style="fill:rgb(212, 184, 106);stroke:none;color:rgb(0, 0, 0);stroke-width:1px;stroke-linecap:butt;stroke-linejoin:miter;opacity:0.75;font-family:&quot;Anthropic Sans&quot;, -apple-system, &quot;system-ui&quot;, &quot;Segoe UI&quot;, sans-serif;font-size:16px;font-weight:400;text-anchor:start;dominant-baseline:auto"/>
  <path d="M600,560 C600,566 597,569 591,569 C597,569 600,572 600,578 C600,572 603,569 609,569 C603,569 600,566 600,560Z" style="fill:rgb(212, 184, 106);stroke:none;color:rgb(0, 0, 0);stroke-width:1px;stroke-linecap:butt;stroke-linejoin:miter;opacity:0.75;font-family:&quot;Anthropic Sans&quot;, -apple-system, &quot;system-ui&quot;, &quot;Segoe UI&quot;, sans-serif;font-size:16px;font-weight:400;text-anchor:start;dominant-baseline:auto"/>
  <path d="M370,350 C370,356 367,359 361,359 C367,359 370,362 370,368 C370,362 373,359 379,359 C373,359 370,356 370,350Z" style="fill:rgb(212, 184, 106);stroke:none;color:rgb(0, 0, 0);stroke-width:1px;stroke-linecap:butt;stroke-linejoin:miter;opacity:0.75;font-family:&quot;Anthropic Sans&quot;, -apple-system, &quot;system-ui&quot;, &quot;Segoe UI&quot;, sans-serif;font-size:16px;font-weight:400;text-anchor:start;dominant-baseline:auto"/>
  <path d="M130,680 C130,686 127,689 121,689 C127,689 130,692 130,698 C130,692 133,689 139,689 C133,689 130,686 130,680Z" style="fill:rgb(212, 184, 106);stroke:none;color:rgb(0, 0, 0);stroke-width:1px;stroke-linecap:butt;stroke-linejoin:miter;opacity:0.75;font-family:&quot;Anthropic Sans&quot;, -apple-system, &quot;system-ui&quot;, &quot;Segoe UI&quot;, sans-serif;font-size:16px;font-weight:400;text-anchor:start;dominant-baseline:auto"/>
  <path d="M500,250 C500,256 497,259 491,259 C497,259 500,262 500,268 C500,262 503,259 509,259 C503,259 500,256 500,250Z" style="fill:rgb(212, 184, 106);stroke:none;color:rgb(0, 0, 0);stroke-width:1px;stroke-linecap:butt;stroke-linejoin:miter;opacity:0.75;font-family:&quot;Anthropic Sans&quot;, -apple-system, &quot;system-ui&quot;, &quot;Segoe UI&quot;, sans-serif;font-size:16px;font-weight:400;text-anchor:start;dominant-baseline:auto"/>
  <path d="M240,920 C240,926 237,929 231,929 C237,929 240,932 240,938 C240,932 243,929 249,929 C243,929 240,926 240,920Z" style="fill:rgb(212, 184, 106);stroke:none;color:rgb(0, 0, 0);stroke-width:1px;stroke-linecap:butt;stroke-linejoin:miter;opacity:0.75;font-family:&quot;Anthropic Sans&quot;, -apple-system, &quot;system-ui&quot;, &quot;Segoe UI&quot;, sans-serif;font-size:16px;font-weight:400;text-anchor:start;dominant-baseline:auto"/>
</svg>